<?xml version="1.0" encoding="UTF-8"?>
<svg xmlns="http://www.w3.org/2000/svg" xmlns:xlink="http://www.w3.org/1999/xlink" width="150px" height="150px" viewBox="0 0 150 150" version="1.1">
<g id="surface1">
<path style=" stroke:none;fill-rule:nonzero;fill:rgb(0%,0%,0%);fill-opacity:1;" d="M 74.914062 117.671875 C 48.550781 117.671875 27.097656 96.222656 27.097656 69.855469 C 27.097656 67.035156 29.382812 64.753906 32.203125 64.753906 C 35.019531 64.753906 37.304688 67.039062 37.304688 69.855469 C 37.304688 90.59375 54.175781 107.46875 74.914062 107.46875 C 95.652344 107.46875 112.527344 90.59375 112.527344 69.855469 C 112.527344 67.039062 114.808594 64.753906 117.628906 64.753906 C 120.449219 64.753906 122.730469 67.039062 122.730469 69.855469 C 122.734375 96.222656 101.28125 117.671875 74.914062 117.671875 Z M 74.914062 117.671875 "/>
<path style=" stroke:none;fill-rule:nonzero;fill:rgb(0%,0%,0%);fill-opacity:1;" d="M 74.914062 100.828125 C 57.980469 100.828125 44.125 86.972656 44.125 70.039062 L 44.125 31.613281 C 44.125 14.679688 57.980469 0.824219 74.914062 0.824219 C 91.851562 0.824219 105.707031 14.679688 105.707031 31.613281 L 105.707031 70.039062 C 105.707031 86.972656 91.851562 100.828125 74.914062 100.828125 Z M 74.914062 100.828125 "/>
<path style=" stroke:none;fill-rule:nonzero;fill:rgb(0%,0%,0%);fill-opacity:1;" d="M 74.914062 147.710938 C 72.097656 147.710938 69.8125 145.429688 69.8125 142.609375 L 69.8125 113.863281 C 69.8125 111.042969 72.097656 108.761719 74.914062 108.761719 C 77.734375 108.761719 80.019531 111.042969 80.019531 113.863281 L 80.019531 142.609375 C 80.019531 145.429688 77.734375 147.710938 74.914062 147.710938 Z M 74.914062 147.710938 "/>
<path style=" stroke:none;fill-rule:nonzero;fill:rgb(0%,0%,0%);fill-opacity:1;" d="M 92.125 149.007812 L 57.707031 149.007812 C 54.890625 149.007812 52.605469 146.722656 52.605469 143.90625 C 52.605469 141.085938 54.890625 138.804688 57.707031 138.804688 L 92.121094 138.804688 C 94.941406 138.804688 97.222656 141.085938 97.222656 143.90625 C 97.222656 146.722656 94.941406 149.007812 92.125 149.007812 Z M 92.125 149.007812 "/>
</g>
</svg>
